<svg xmlns="http://www.w3.org/2000/svg" viewBox="0 0 50.54 53.18"><defs><style>.cls-1{fill:#fecd68;}</style></defs><title>fgillet-logo</title><g id="Calque_2" data-name="Calque 2"><g id="Calque_1-2" data-name="Calque 1"><g id="mayonneyz"><g id="Groupe_1" data-name="Groupe 1"><path id="Tracé_1" data-name="Tracé 1" class="cls-1" d="M49.83,23.53a2.09,2.09,0,0,0-1.55-1.25,1.18,1.18,0,0,1-.83-.66,3.67,3.67,0,0,1-.2-1.39c.13-1.88.17-3.53.13-5Q47.22,8.84,39.3,3.62,33.89.08,25.43,0a6.74,6.74,0,0,0-1.9.3c-2.47.71-4.68,1.32-6.65,1.84-.69.19-1.31.39-1.86.59a16.7,16.7,0,0,0-8.9,7.49A32,32,0,0,0,2.37,22.54,5.15,5.15,0,0,0,.65,23.78a.2.2,0,0,0-.05.15A10.41,10.41,0,0,0,0,27.47a3.67,3.67,0,0,1,.2,1.19,32.61,32.61,0,0,0,1.35,6.18,19.06,19.06,0,0,1,.7,2.87q1.56,9.4,9,13.09,8,4,17.57,1.32a24.43,24.43,0,0,0,11-6.14,23.84,23.84,0,0,0,6.11-11,1.14,1.14,0,0,1,.34.15,4,4,0,0,0,.92,0h.19A3.08,3.08,0,0,0,48.8,33.8a18.15,18.15,0,0,0,.85-2,12.58,12.58,0,0,0,.84-5.72,20.57,20.57,0,0,0-.65-2.57m-16-19.65a20.64,20.64,0,0,1,5.1,3.35,12.55,12.55,0,0,1,3.83,6.26,32.11,32.11,0,0,0,.62,3.34v1.58l-.2,0a35.91,35.91,0,0,0-16.94,2.39,12.68,12.68,0,0,0-3.42.31,2.17,2.17,0,0,1-1,.09,31.84,31.84,0,0,0-11.54-.8l-.19,0c-1.58.32-2.63.24-3.15-.22a7,7,0,0,0,.31-1.11c0-.11.25-.9.73-2.38l.72-2.23a23.89,23.89,0,0,1,5-7s.21-.17.5-.38A6.23,6.23,0,0,1,15,6.5a3.53,3.53,0,0,0,.32-.21,4.94,4.94,0,0,1,.49-.3,4.71,4.71,0,0,1,.52-.21c.08,0,.38-.17.88-.42a29.46,29.46,0,0,1,3-1.13,31.41,31.41,0,0,1,3.69-1q6.59-1,10,.66m6.4,17.24a16.94,16.94,0,0,1-.15,3,45.05,45.05,0,0,0-.25,4.51.22.22,0,0,0-.16.05,8.72,8.72,0,0,1-2.16.67c-.82.19-1.62.35-2.4.5-3.18.59-5-.14-5.53-2.21,0,0-.17-1.44-.4-4.33a20,20,0,0,1,11-2.21m2.6,2.41c.43-.58.73-.33.9.78,0,.13,0,.28.06.44.06.56.1,1.1.12,1.64a44.2,44.2,0,0,1-.13,4.46c0,.31-.11.86-.23,1.64A29.93,29.93,0,0,1,41.23,38,30.09,30.09,0,0,1,38.52,43c-.4.4-1.22,1.13-2.47,2.17s-2,1.62-2.25,1.79l-.28.23q-3.71,2.91-10.06,3.37H21.29Q6.19,50,5.92,34.57a40.75,40.75,0,0,0,14.79-1.94.41.41,0,0,1,.19,0,4.92,4.92,0,0,0,.37,2.93,3,3,0,0,0,1.23,1.11,2.47,2.47,0,0,0,1,.31h.4A4.85,4.85,0,0,0,28,34.73a.45.45,0,0,0,0-.16,4.1,4.1,0,0,0-3.93-.5V34a44.29,44.29,0,0,0-.3-6.09,2.64,2.64,0,0,0-1.32-.74,1.42,1.42,0,0,0-1.19.28.28.28,0,0,1-.16,0,3,3,0,0,1,0-2.38,1.1,1.1,0,0,0,0-.18,11.23,11.23,0,0,1,4.74-1H26a43,43,0,0,1,1.18,5.72v.2A20.58,20.58,0,0,0,29.78,32a15.18,15.18,0,0,0,9.16-.45l1.94-.74a8.82,8.82,0,0,0,1.19-.5c.11-.74.25-2.11.43-4.11.14-1.69.24-2.57.27-2.62s0-.05,0-.05M17.74,28a14.38,14.38,0,0,1-.18,2.27A23.07,23.07,0,0,1,5.92,31.41v-.2c0-.39.06-1.4.17-3a23.1,23.1,0,0,1,.29-3A2,2,0,0,1,7.8,24a15.79,15.79,0,0,1,9.94.09ZM11,28.59a.41.41,0,0,1,.19,0A2.15,2.15,0,0,0,13.34,28a4.25,4.25,0,0,0-.23-.77c-.49-1-1.47-1.1-2.92-.22a.58.58,0,0,0,0,.19A8.14,8.14,0,0,0,11,28.59m24.17-1.81q1.28-.24,1-1.23a.77.77,0,0,0-.07-.27A2,2,0,0,1,36,25c0-.12-.15-.21-.43-.25a2.1,2.1,0,0,0-.79,0,4.59,4.59,0,0,0-1.19.38q-.34,2,1.56,1.68Z"/><path id="Tracé_2" data-name="Tracé 2" class="cls-1" d="M33.38,42.36a2.12,2.12,0,0,0-.07-.71,2.16,2.16,0,0,0-2.89-.18q-3.75,2.64-8.93,1.18a.69.69,0,0,1-.2,0,1.76,1.76,0,0,0-1.58.42A6.53,6.53,0,0,0,26,45.62a26.44,26.44,0,0,0,6.46-2.23l.09,0A1.23,1.23,0,0,0,33.38,42.36Z"/><path id="Tracé_3" data-name="Tracé 3" class="cls-1" d="M28.76,46.83l-.16,0L28,46.67V47h.75v-.16m1-7.83c1.39,0,1.39-.06,0-.29V39M17,44.28c-.2.62,0,.83.46.62l.05,0c.48-.41.47-.68,0-.82-.29,0-.46.11-.5.25M9.55,39.74c-.22-.51-.43-.58-.64-.19,0,.26,0,.42.09.49.45.33.64.25.58-.23a.09.09,0,0,0,0-.07Z"/><path id="Tracé_4" data-name="Tracé 4" class="cls-1" d="M22.71,48.47a.76.76,0,0,0-1,0,.61.61,0,0,0,.75.43.7.7,0,0,0,.24-.13c0-.2.07-.32,0-.34M38.06,41.4a.31.31,0,0,0,.16-.12.58.58,0,0,0,0-.18.22.22,0,0,1-.16-.05.76.76,0,0,0-1,.05.61.61,0,0,0,.77.41.65.65,0,0,0,.22-.11Z"/><path id="Tracé_5" data-name="Tracé 5" class="cls-1" d="M26.22,47.64a1.16,1.16,0,0,0-.64,0,3,3,0,0,0-.5.17,1,1,0,0,0,1,.79,2.44,2.44,0,0,1,.76.1h.06C26.82,48.11,26.59,47.76,26.22,47.64Z"/><path id="Tracé_6" data-name="Tracé 6" class="cls-1" d="M24.1,41a.61.61,0,0,1,0,.12c.25.66.52.8.82.4s0-.69-1-.86a.52.52,0,0,0,.1.34M35.93,39c-.57.21-.69.44-.35.69s.58,0,.74-.82a.48.48,0,0,0-.29.09l-.1,0m3.14-1.07c.28.77.59.93.94.48s0-.8-1.12-1a.71.71,0,0,0,.11.4.75.75,0,0,1,.07.12Z"/><path id="Tracé_7" data-name="Tracé 7" class="cls-1" d="M22,39.6c.48.37.74.06.8-.93-.27.19-.52.4-.77.61s-.15.23,0,.32M12.1,44.41l.4.05c.5-.16.1-.44-1.21-.86a.9.9,0,0,0,.81.81m3.47,2.77a.92.92,0,0,0,.81.81l.4.06c.51-.17.11-.46-1.21-.87m.17-5,.41.06c.5-.16.09-.45-1.22-.86a.9.9,0,0,0,.81.8Z"/><path id="Tracé_8" data-name="Tracé 8" class="cls-1" d="M27.24,39.42c.11,0,.17.06.17,0,.2-.88-.2-1.26-1.19-1.14A1.86,1.86,0,0,0,27.24,39.42Z"/><path id="Tracé_9" data-name="Tracé 9" class="cls-1" d="M28,41.44v.46C29,41.15,29,41,28,41.44Z"/><path id="Tracé_10" data-name="Tracé 10" class="cls-1" d="M18.76,46.58c.11.36.43.34,1-.06-.77-.44-1.09-.42-1,.06m14.62-6.95c0-.37-.32-.43-1-.19.63.63,1,.7,1,.19Z"/><path id="Tracé_11" data-name="Tracé 11" class="cls-1" d="M12.34,46.11a.45.45,0,0,0,.3.49h.1a4.3,4.3,0,0,0,1.38.19.24.24,0,0,0,0-.08A2.12,2.12,0,0,0,12.35,46Z"/><path id="Tracé_12" data-name="Tracé 12" class="cls-1" d="M12.41,42.28a.78.78,0,0,0,.7,0c.14-.68-.11-.88-.74-.61a.5.5,0,0,0,0,.61m6.12-3a5,5,0,0,0,.95.82l.23.16c.22-1.07-.17-1.4-1.18-1Z"/><path id="Tracé_13" data-name="Tracé 13" class="cls-1" d="M14.86,40.21c.49.18.46,0-.09-.46-.43.12-.4.28.09.46m18.82,4.61c-.18.49,0,.46.46-.09-.12-.43-.28-.4-.46.09Z"/><path id="Tracé_14" data-name="Tracé 14" class="cls-1" d="M8.31,41.66a.67.67,0,0,0,.54.57l.05,0c1.31,0,1.11-.24-.59-.6m27.62,1.46,0,0c1.31,0,1.11-.24-.59-.6a.67.67,0,0,0,.54.57M31.49,47l.05,0c1.31,0,1.11-.23-.6-.59a.67.67,0,0,0,.55.58Z"/></g></g></g></g></svg>